<?xml version="1.0" encoding="UTF-8"?>
<svg xmlns="http://www.w3.org/2000/svg" xmlns:xlink="http://www.w3.org/1999/xlink" width="30px" height="30px" viewBox="0 0 30 30" version="1.1">
<g id="surface1">
<path style=" stroke:none;fill-rule:nonzero;fill:rgb(0%,0%,0%);fill-opacity:1;" d="M 1.597656 3.199219 C 1.363281 3.316406 1.207031 3.632812 1.261719 3.871094 C 1.289062 4.003906 2.730469 5.566406 6.597656 9.65625 L 11.894531 15.261719 L 11.894531 20.859375 C 11.894531 25.941406 11.90625 26.472656 11.988281 26.597656 C 12.117188 26.777344 12.441406 26.90625 12.636719 26.859375 C 12.824219 26.8125 17.871094 23.039062 18.011719 22.847656 C 18.09375 22.722656 18.105469 22.324219 18.105469 18.984375 L 18.105469 15.261719 L 23.402344 9.65625 C 27.269531 5.566406 28.710938 4.003906 28.738281 3.871094 C 28.792969 3.628906 28.636719 3.308594 28.386719 3.199219 C 28.214844 3.117188 26.894531 3.105469 14.988281 3.105469 C 3.121094 3.105469 1.769531 3.117188 1.597656 3.199219 Z M 26.589844 4.441406 C 26.582031 4.472656 24.421875 6.761719 21.796875 9.542969 C 19.171875 12.324219 16.992188 14.652344 16.949219 14.722656 C 16.898438 14.824219 16.878906 15.75 16.875 18.519531 L 16.875 22.195312 L 15.027344 23.578125 C 14.015625 24.339844 13.171875 24.960938 13.152344 24.960938 C 13.136719 24.960938 13.125 22.6875 13.125 19.902344 C 13.121094 16.042969 13.101562 14.824219 13.050781 14.722656 C 13.007812 14.652344 10.828125 12.324219 8.203125 9.542969 C 5.578125 6.761719 3.421875 4.472656 3.410156 4.441406 C 3.398438 4.417969 8.613281 4.394531 15 4.394531 C 21.386719 4.394531 26.601562 4.417969 26.589844 4.441406 Z M 26.589844 4.441406 "/>
</g>
</svg>
